<svg width="348" height="332" viewBox="0 0 348 332" fill="none" xmlns="http://www.w3.org/2000/svg">
<path opacity="0.4" d="M174.001 321.06C201.98 321.06 224.661 316.954 224.661 311.89C224.661 306.826 201.98 302.721 174.001 302.721C146.021 302.721 123.34 306.826 123.34 311.89C123.34 316.954 146.021 321.06 174.001 321.06Z" fill="#CCCECE"/>
<path opacity="0.4" d="M63.0083 318.239C82.3919 318.239 98.1054 315.396 98.1054 311.889C98.1054 308.382 82.3919 305.539 63.0083 305.539C43.6247 305.539 27.9111 308.382 27.9111 311.889C27.9111 315.396 43.6247 318.239 63.0083 318.239Z" fill="#CCCECE"/>
<path d="M215.078 269.931C215.061 270.072 215.034 270.221 215.008 270.361C213.594 278.53 209.73 286.355 203.432 292.653C201.886 294.199 200.244 295.604 198.531 296.86C182.247 308.761 159.28 307.365 144.568 292.653C142.715 290.8 141.072 288.815 139.649 286.733C128.521 270.52 130.164 248.193 144.568 233.789C147.264 231.092 150.242 228.835 153.412 227.035C160.79 222.827 169.187 221.062 177.417 221.747C177.689 221.765 177.961 221.791 178.233 221.817C187.289 222.731 196.089 226.613 203.081 233.446C203.204 233.56 203.318 233.675 203.432 233.789C213.269 243.626 217.16 257.169 215.078 269.931Z" fill="#12B3D8"/>
<path d="M168.511 298.599C158.085 298.546 147.677 294.594 139.649 286.742C128.521 270.528 130.164 248.202 144.568 233.798C153.562 224.804 165.656 220.781 177.417 221.756C174.026 222.098 170.689 223.012 167.518 224.558C153.746 231.25 147.299 247.587 150.681 264.055C151.419 267.656 152.622 271.266 154.335 274.779C158.103 282.544 163.733 288.683 170.197 292.758C172.893 294.462 171.699 298.617 168.511 298.599Z" fill="#5FD6FF"/>
<path d="M215.078 269.931C212.311 277.643 207.015 284.045 199.593 287.647C182.8 295.806 161.483 286.54 151.971 266.962C151.506 265.996 151.075 265.021 150.68 264.046C145.393 250.942 146.737 236.951 153.412 227.035C160.79 222.827 169.186 221.062 177.416 221.747C177.688 221.765 177.96 221.791 178.233 221.817C187.288 222.731 196.089 226.613 203.08 233.446C203.203 233.56 203.317 233.675 203.431 233.789C213.268 243.626 217.159 257.169 215.078 269.931Z" fill="#5FD6FF"/>
<path d="M206.392 280.532C199.023 287.901 187.534 289.28 176.591 285.196H176.573C171.224 283.194 166.007 279.891 161.466 275.35C154.852 268.737 150.874 260.7 149.714 252.91C148.441 244.381 150.54 236.151 156.275 230.416C167.254 219.437 187.367 221.765 201.21 235.598C215.052 249.44 217.37 269.553 206.392 280.532Z" fill="#4F5FAC"/>
<path d="M209.825 258.688C208.982 258.512 207.752 258.275 206.25 258.284C205.504 258.284 204.687 258.346 203.835 258.477C202.992 258.635 202.087 258.829 201.209 259.224C200.322 259.566 199.47 260.085 198.662 260.682C198.258 261.007 197.907 261.297 197.529 261.63C197.169 261.973 196.782 262.307 196.44 262.667C195.043 264.081 193.77 265.583 192.531 266.927C191.899 267.585 191.302 268.226 190.678 268.771C190.371 269.052 190.063 269.307 189.747 269.535H189.738C188.886 270.229 187.639 270.097 186.963 269.254C186.111 268.191 185.136 267.041 184.073 265.855C183.221 264.906 183.45 263.413 184.556 262.772H184.574C184.934 262.57 185.312 262.368 185.707 262.157C186.076 261.911 186.453 261.657 186.849 261.402C187.253 261.156 187.613 260.831 188.008 260.532C188.403 260.234 188.781 259.9 189.15 259.549C190.669 258.17 192.11 256.536 193.48 254.867C194.147 254.024 194.824 253.181 195.482 252.347C196.141 251.521 196.782 250.704 197.432 249.94C198.073 249.22 198.75 248.465 199.426 247.902C200.102 247.305 200.831 246.848 201.534 246.488C202.237 246.128 202.93 245.926 203.554 245.803C204.186 245.68 204.757 245.68 205.214 245.742C206.145 245.847 206.628 246.119 206.628 246.119C206.628 246.119 206.514 246.04 206.286 245.926C206.057 245.812 205.706 245.672 205.24 245.575C204.775 245.47 204.186 245.417 203.51 245.478C202.843 245.54 202.079 245.698 201.323 246.04C200.568 246.374 199.769 246.813 199.022 247.402C198.232 247.981 197.564 248.64 196.844 249.422C196.159 250.186 195.474 250.977 194.806 251.811C194.139 252.637 193.462 253.471 192.786 254.305C192.11 255.14 191.425 255.957 190.722 256.747C190.011 257.52 189.326 258.302 188.597 258.978C188.245 259.338 187.885 259.663 187.516 259.979C187.156 260.287 186.822 260.629 186.445 260.884C186.076 261.156 185.724 261.42 185.382 261.683C185.013 261.903 184.662 262.122 184.319 262.333C184.293 262.351 184.266 262.368 184.223 262.395C182.914 263.123 181.28 262.851 180.226 261.788C179.831 261.384 179.436 260.989 179.032 260.585C177.653 259.224 177.626 257.01 178.988 255.632L179.014 255.596C179.576 254.999 180.209 254.358 180.823 253.638C181.456 252.935 182.088 252.162 182.729 251.345C183.344 250.52 184.012 249.685 184.618 248.79C185.241 247.911 185.847 246.989 186.453 246.076C187.639 244.222 188.763 242.334 189.747 240.533C190.248 239.638 190.704 238.75 191.126 237.907C191.328 237.477 191.548 237.09 191.758 236.73C192.004 236.388 192.25 236.063 192.54 235.791C193.682 234.701 195.078 234.377 196.009 234.315C196.958 234.254 197.503 234.368 197.503 234.368C197.503 234.368 196.976 234.183 196.009 234.148C195.526 234.139 194.929 234.174 194.262 234.359C193.603 234.535 192.865 234.86 192.215 235.43C191.881 235.712 191.592 236.045 191.302 236.414C191.047 236.801 190.792 237.205 190.573 237.609C190.098 238.417 189.607 239.269 189.088 240.156C188.561 241.034 188.017 241.939 187.463 242.852C186.901 243.766 186.322 244.688 185.724 245.601C184.548 247.437 183.318 249.229 182.123 250.889C181.509 251.697 180.938 252.505 180.349 253.234C179.787 253.98 179.199 254.639 178.672 255.263C178.118 255.86 177.618 256.422 177.161 256.896H177.152C176.608 257.432 175.756 257.441 175.194 256.931C173.639 255.526 172.067 254.174 170.495 252.935C169.985 252.531 169.783 251.864 169.994 251.249C170.196 250.66 170.433 250.019 170.705 249.325C171.268 247.938 172.058 246.383 173.033 244.802C174.008 243.212 175.185 241.605 176.423 240.033C177.635 238.434 178.935 236.88 179.849 235.158C180.314 234.315 180.648 233.375 180.771 232.506C180.938 231.645 181.008 230.811 181.034 230.046C181.087 228.509 180.806 227.236 180.516 226.401C180.226 225.558 179.91 225.154 179.91 225.154C179.91 225.154 180.156 225.602 180.349 226.454C180.569 227.297 180.657 228.553 180.534 230.02C180.463 230.758 180.349 231.548 180.13 232.374C179.945 233.2 179.62 233.99 179.164 234.789C178.241 236.37 176.95 237.907 175.721 239.506C174.491 241.104 173.305 242.756 172.365 244.424C171.408 246.076 170.732 247.736 170.24 249.167V249.202C169.766 250.573 168.123 251.126 166.929 250.309C165.304 249.194 163.74 248.245 162.282 247.542C160.895 246.875 160.289 245.224 160.921 243.818V243.792C161.132 243.423 161.325 243.054 161.536 242.677C161.755 242.308 161.975 241.93 162.203 241.552C162.66 240.797 163.152 240.05 163.661 239.304C164.645 237.793 165.699 236.309 166.437 234.719C166.621 234.324 166.779 233.876 166.911 233.481C166.955 233.279 166.99 233.085 167.025 232.883L167.087 232.594L167.113 232.26C167.192 231.461 167.113 230.688 166.981 230.003C166.85 229.309 166.551 228.711 166.244 228.237C165.927 227.763 165.567 227.412 165.242 227.174C164.592 226.691 164.136 226.595 164.136 226.595C164.136 226.595 164.566 226.77 165.137 227.306C165.717 227.824 166.314 228.808 166.498 230.099C166.577 230.74 166.604 231.461 166.481 232.198L166.454 232.453L166.375 232.743C166.27 233.059 166.094 233.568 165.989 233.885C165.919 234.052 165.84 234.227 165.752 234.403C164.996 235.861 163.942 237.328 162.941 238.838C162.441 239.594 161.949 240.367 161.492 241.139C161.026 241.912 160.631 242.712 160.254 243.485C160.254 243.485 160.254 243.502 160.245 243.511C159.612 244.978 158.233 245.953 156.661 246.242C156.617 246.242 156.582 246.26 156.538 246.269C154.615 246.673 153.227 247.367 152.226 248.192C152.516 247.2 152.858 246.146 153.236 245.083C153.93 243.019 154.685 240.92 154.808 239.207C154.843 238.786 154.826 238.39 154.764 238.039C154.711 237.697 154.597 237.398 154.474 237.178C154.351 236.959 154.211 236.809 154.114 236.73C154.018 236.643 153.965 236.599 153.965 236.599C153.965 236.599 154.009 236.651 154.079 236.757C154.167 236.853 154.237 237.029 154.325 237.24C154.395 237.459 154.457 237.732 154.439 238.057C154.439 238.373 154.386 238.733 154.307 239.128C153.982 240.692 153.113 242.703 152.401 244.784C152.05 245.83 151.716 246.892 151.497 247.911C151.497 247.929 151.497 247.938 151.488 247.955C151.33 248.675 151.04 249.352 150.662 249.984C150.056 251.02 149.81 252.074 149.723 252.961C150.882 260.752 154.861 268.789 161.474 275.402C166.015 279.943 171.232 283.245 176.581 285.248H176.599C186.814 286.223 190.819 284.598 191.82 281.84C192.233 280.707 193.102 279.803 194.262 279.495L194.525 279.425C195.588 279.188 196.695 278.863 197.801 278.529C198.899 278.178 199.988 277.818 201.007 277.51C201.516 277.37 202.008 277.238 202.483 277.15C202.957 277.071 203.405 277.001 203.818 276.992C204.239 276.957 204.617 277.001 204.968 277.018C205.302 277.071 205.609 277.089 205.855 277.15C206.347 277.264 206.628 277.326 206.628 277.326C206.628 277.326 206.365 277.194 205.908 276.992C205.68 276.887 205.372 276.816 205.03 276.693C204.678 276.614 204.283 276.5 203.835 276.491C203.387 276.447 202.904 276.456 202.395 276.5C201.885 276.553 201.358 276.641 200.823 276.764C199.751 277.01 198.653 277.361 197.546 277.686C196.923 277.879 196.308 278.072 195.702 278.257C193.831 278.828 191.846 277.861 191.126 276.035C190.906 275.472 190.652 274.893 190.388 274.322C190.327 274.19 190.257 274.05 190.177 273.9C189.352 272.337 189.703 270.413 191.082 269.316H191.091C191.776 268.78 192.435 268.165 193.093 267.506C194.411 266.189 195.684 264.696 197.063 263.326C197.397 262.965 197.757 262.658 198.1 262.324C198.451 262.008 198.846 261.674 199.198 261.384C199.944 260.831 200.708 260.313 201.534 259.97C202.342 259.584 203.176 259.347 203.976 259.145C204.784 258.969 205.557 258.855 206.286 258.811C207.006 258.767 207.682 258.75 208.271 258.776C208.868 258.793 209.386 258.846 209.808 258.89C210.66 258.987 211.143 259.092 211.143 259.092C211.143 259.092 210.686 258.908 209.834 258.723L209.825 258.688Z" fill="#2D4891"/>
<path d="M278.931 207.331C277.939 209.184 276.665 210.923 275.102 212.478C266.556 221.024 252.705 221.024 244.159 212.478C225.416 193.743 200.498 183.423 174 183.423C147.501 183.423 122.584 193.743 103.841 212.478C99.5722 216.755 93.9686 218.889 88.3738 218.889C87.1529 218.889 85.9321 218.784 84.7288 218.573C80.39 217.862 76.2356 215.824 72.898 212.478C71.3346 210.914 70.0523 209.175 69.0686 207.322C68.8227 204.819 71.3522 203.545 71.3522 203.545C98.3514 176.537 135.811 139.648 174 139.648C174.299 139.648 174.597 139.648 174.896 139.657C213.199 140.641 276.648 203.554 276.648 203.554C276.648 203.554 276.964 203.73 277.368 204.143C277.912 204.696 278.624 205.697 278.931 207.331Z" fill="#5FD6FF"/>
<path d="M278.931 207.331C271.395 208.086 263.596 205.574 257.826 199.804C235.437 177.416 205.663 165.084 174 165.084C142.337 165.084 112.562 177.416 90.1743 199.804C85.0626 204.907 78.3699 207.463 71.6859 207.463C70.8076 207.463 69.9381 207.419 69.0686 207.322C68.8227 204.819 71.3522 203.545 71.3522 203.545C98.3514 176.537 135.811 139.648 174 139.648C174.299 139.648 174.597 139.648 174.896 139.657C213.199 140.641 276.648 203.554 276.648 203.554C276.648 203.554 278.395 204.494 278.931 207.331Z" fill="#12B3D8"/>
<path d="M276.648 203.552C269.27 204.299 261.646 201.84 255.999 196.192C245.354 185.556 232.987 177.23 219.549 171.494C219.54 171.485 219.532 171.485 219.523 171.477C205.321 165.408 189.906 162.228 174 162.228C143.022 162.228 113.898 174.296 92.0015 196.192C86.9952 201.181 80.4518 203.684 73.9172 203.684C73.0565 203.684 72.2045 203.64 71.3525 203.544C70.0175 201.058 69.2095 198.353 68.9372 195.613C68.8494 194.708 68.8142 193.794 68.8406 192.89C68.9636 187.602 71.0539 182.35 75.1029 178.31C101.514 151.89 136.646 137.346 174 137.346C194.289 137.346 213.919 141.641 231.854 149.8C232.636 150.143 233.4 150.503 234.173 150.872C248.367 157.635 261.445 166.857 272.898 178.31C276.288 181.691 278.308 185.925 278.949 190.325C279.608 194.813 278.844 199.468 276.648 203.552Z" fill="#4F5FAC"/>
<path d="M278.949 190.325C276.34 190 273.67 193.355 265.932 193.522C255.077 193.75 244.212 185.88 241.217 176.632C238.213 167.383 244.73 163.721 242.095 158.591C240.98 156.404 237.642 153.497 234.173 150.871C248.366 157.634 261.444 166.856 272.897 178.309C276.288 181.691 278.308 185.924 278.949 190.325Z" fill="#2D4891"/>
<path d="M219.522 171.478C205.32 165.409 189.906 162.229 174 162.229C143.022 162.229 113.897 174.297 92.0009 196.193C86.9945 201.182 80.4511 203.685 73.9165 203.685C73.0558 203.685 72.2038 203.641 71.3519 203.545C70.0168 201.059 69.2088 198.354 68.9365 195.614C69.8324 196.896 71.2026 197.985 73.3105 198.468C80.3369 200.102 86.9242 196.87 99.2205 187.173C111.517 177.485 172.067 143.284 219.522 171.478Z" fill="#2D4891"/>
<path d="M278.932 207.33C277.939 209.183 276.666 210.922 275.103 212.476C266.557 221.022 252.706 221.022 244.16 212.476C225.417 193.742 200.499 183.422 174.001 183.422C147.502 183.422 122.585 193.742 103.841 212.476C99.5729 216.754 93.9693 218.888 88.3745 218.888C87.1536 218.888 85.9328 218.783 84.7295 218.572C90.5702 218.221 96.1299 216.64 100.539 213.056C118.105 198.784 134.573 186.927 167.22 182.122C199.867 177.318 231.626 199.003 242.166 207.461C252.706 215.919 259.293 217.887 264.747 214.593C270.202 211.3 273.539 204.422 273.539 204.422L277.369 204.141C277.913 204.695 278.625 205.696 278.932 207.33Z" fill="#12B3D8"/>
<path d="M334.687 150.089C333.633 152.952 331.955 155.631 329.654 157.932C325.377 162.201 319.782 164.344 314.178 164.344C308.575 164.344 302.98 162.201 298.703 157.932C229.94 89.1693 118.061 89.1693 49.2987 157.932C42.9573 164.273 33.6736 165.916 25.8215 162.824C23.0988 161.761 20.5429 160.128 18.3471 157.932C16.1514 155.736 14.3684 152.952 13.3145 150.089C13.455 147.621 14.8251 146.637 14.8251 146.637C14.8251 146.637 115.207 62.5039 174.001 62.5039C232.795 62.5039 333.185 146.637 333.185 146.637C333.185 146.637 333.431 146.865 333.73 147.304C334.125 147.884 334.608 148.841 334.687 150.089Z" fill="#5FD6FF"/>
<path d="M334.687 150.089C333.721 150.22 332.746 150.273 331.771 150.273C325.465 150.273 319.167 147.867 314.354 143.062C236.967 65.6658 111.035 65.6658 33.6473 143.062C28.0964 148.613 20.5517 150.958 13.3145 150.089C13.455 147.621 14.8251 146.637 14.8251 146.637C14.8251 146.637 115.207 62.5039 174.001 62.5039C232.795 62.5039 333.185 146.637 333.185 146.637C333.185 146.637 334.546 147.91 334.687 150.089Z" fill="#12B3D8"/>
<path d="M334.529 139.971C334.433 142.237 333.985 144.485 333.186 146.637C332.228 146.769 331.262 146.822 330.296 146.822C324.043 146.822 317.806 144.433 313.037 139.672C236.379 63.0047 111.624 63.0047 34.9653 139.672C29.4671 145.17 21.9927 147.498 14.8257 146.637C13.8947 144.151 13.4468 141.534 13.4644 138.917C13.4995 133.419 15.6162 127.938 19.8057 123.74C58.5391 85.0151 109.27 62.6446 163.611 60.1151C163.672 60.1063 163.699 60.1063 163.699 60.1063C167.124 59.9482 170.558 59.8691 174.001 59.8691C193.017 59.8691 211.663 62.2845 229.581 66.9834C266.549 76.6536 300.451 96.0027 328.197 123.74C332.65 128.201 334.767 134.13 334.529 139.971Z" fill="#4F5FAC"/>
<path d="M230.31 71.8668C222.185 70.3298 214.939 74.9409 210.196 73.4039C205.453 71.8668 196.714 70.9885 191.726 70.5494C186.737 70.1102 178.27 74.0626 169.803 71.7526C161.345 69.4427 154.556 70.1102 140.547 71.2081C126.538 72.306 119.204 72.0864 126.23 67.3084C133.257 62.5304 161.819 60.2644 163.611 60.1151C163.672 60.1063 163.699 60.1063 163.699 60.1063C167.124 59.9482 170.558 59.8691 174.001 59.8691C193.017 59.8691 211.663 62.2845 229.581 66.9834C234.675 70.2068 235.369 72.8242 230.31 71.8668Z" fill="#2D4891"/>
<path d="M334.687 150.089C333.633 152.952 331.955 155.631 329.654 157.932C325.377 162.201 319.782 164.344 314.178 164.344C308.575 164.344 302.98 162.201 298.702 157.932C229.94 89.1698 118.061 89.1698 49.2984 157.932C42.9571 164.274 33.6734 165.916 25.8213 162.825C31.1263 162.939 36.6772 162.456 40.6822 160.559C51.0902 155.64 95.8575 103.346 174.009 103.346C252.161 103.346 298.702 157.932 310.832 160.559C322.961 163.185 329.759 150.186 329.759 150.186L333.729 147.305C334.125 147.885 334.608 148.842 334.687 150.089Z" fill="#12B3D8"/>
<path d="M334.529 139.969C334.433 142.235 333.985 144.484 333.186 146.636C332.228 146.767 331.262 146.82 330.296 146.82C324.042 146.82 317.806 144.431 313.037 139.671C236.379 63.0032 111.624 63.0032 34.9653 139.671C29.4671 145.169 21.9927 147.496 14.8257 146.636C13.8947 144.15 13.4468 141.533 13.4644 138.915C15.5108 141.533 19.0767 143.922 25.0404 142.648C36.5902 140.18 81.1818 80.5781 174.01 80.5781C277.501 80.5781 309.348 150.281 334.529 139.969Z" fill="#2D4891"/>
<path d="M172.663 255.457C172.663 255.457 176.387 254.587 177.511 256.502C178.636 258.408 186.365 266.963 186.365 266.963L184.915 269.606C184.915 269.606 179.303 265.97 177.503 263.818C175.702 261.666 172.654 255.457 172.654 255.457H172.663Z" fill="#DB7B56"/>
<path d="M172.665 255.459C172.665 255.459 176.389 254.88 177.513 255.872C178.638 256.865 179.858 258.472 179.858 258.472C179.858 258.472 178.049 261.247 176.995 261.072C175.326 260.799 172.665 255.468 172.665 255.468V255.459Z" fill="#AF4646"/>
<path d="M176.931 258.095C176.097 257.199 175.078 255.179 171.767 254.538C168.456 253.896 164.222 253.817 162.633 254.924C159.708 256.971 159.796 261.063 162.035 266.342C164.275 271.629 169.123 283.987 182.816 283.987C196.509 283.987 196.21 270.918 188.999 270.163C181.788 269.407 178.618 268.09 179.206 265.297C180.304 260.097 178.477 259.755 176.923 258.086L176.931 258.095Z" fill="#C15D5D"/>
<path d="M185.759 271.199C185.759 271.199 210.193 261.924 212.547 261.924C214.901 261.924 226.969 285.181 226.969 285.181L225.502 286.648C225.502 286.648 215.349 274.607 211.669 269.293C211.669 269.293 202.982 283.996 193.707 283.996C184.433 283.996 186.347 283.996 186.347 283.996L185.759 271.19V271.199Z" fill="#105CA0"/>
<path d="M172.663 253.385C172.663 253.385 172.224 256.038 170.749 256.477C169.879 256.74 167.218 254.606 167.218 254.606C167.218 254.606 167.323 251.154 167.797 250.645C168.948 249.406 172.663 253.394 172.663 253.394V253.385Z" fill="#DB7B56"/>
<path d="M191.969 270.168H176.3C176.054 270.168 175.852 269.966 175.852 269.72V269.026H192.417V269.72C192.417 269.966 192.215 270.168 191.969 270.168Z" fill="#5FD6FF"/>
<path d="M198.514 270.168H182.845C182.599 270.168 182.397 269.966 182.397 269.72V269.026H198.962V269.72C198.962 269.966 198.76 270.168 198.514 270.168Z" fill="#12B3D8"/>
<path d="M183.195 269.607H198.776C199.057 269.607 199.356 269.396 199.453 269.124L203.036 258.944C203.133 258.681 202.975 258.461 202.694 258.461H187.112C186.831 258.461 186.533 258.672 186.436 258.944L182.853 269.124C182.756 269.387 182.914 269.607 183.195 269.607Z" fill="#5FD6FF"/>
<path d="M187.971 283.995C200.909 283.995 204.826 267.246 211.493 263.205C212.669 262.494 213.899 262.995 214.69 264.128L217.474 268.159C217.474 268.159 222.594 271.628 230.543 275.019L231.983 273.692C231.983 273.692 212.257 256.855 210.491 256.372C208.726 255.889 190.773 266.042 183.562 271.786C183.562 271.786 181.252 272.296 179.188 277.232C177.124 282.168 181.2 284.004 184.441 284.004H187.971V283.995Z" fill="#1174E9"/>
<path d="M231.923 290.872C231.923 290.872 232.362 290.073 230.676 289.256C228.989 288.439 227.558 286.902 226.539 284.057C226.539 284.057 225.626 284.759 225.353 284.865C225.028 284.996 224.176 284.996 224.176 284.996C224.176 284.996 224.51 287.227 223.526 288.685L231.932 290.872H231.923Z" fill="#C15D5D"/>
<path d="M239.292 272.925C239.292 272.925 238.976 272.073 237.255 272.82C235.533 273.567 233.733 273.417 230.913 272.328C230.913 272.328 230.773 273.268 230.615 273.619C230.483 273.927 229.78 274.963 229.78 274.963C229.78 274.963 231.686 276.166 232.152 277.861L239.292 272.925Z" fill="#C15D5D"/>
<path d="M165.972 259.71C165.972 259.71 165.822 256.126 163.829 255.45C161.844 254.773 159.709 256.837 159.999 266.183C160.298 275.528 161.106 274.281 161.106 274.281L163.758 271.119L165.972 259.71Z" fill="#DB7B56"/>
<path d="M176.986 267.57C173.657 267.421 162.652 269.599 162.652 269.599C162.652 269.599 160.289 271.32 161.106 274.28C161.458 275.562 176.6 269.081 176.6 269.081L176.986 267.57Z" fill="#EBB998"/>
<path d="M176.986 267.568C176.986 267.568 180.455 267.217 180.903 267.217C181.351 267.217 182.826 269.404 182.826 269.404H182.229L181.298 268.525L181.641 269.404H180.903L180.35 268.921L180.569 269.597H178.584C178.584 269.597 177.118 269.395 176.599 269.079C176.072 268.763 176.986 267.568 176.986 267.568Z" fill="#EBB998"/>
<path d="M175.279 254.572C174.673 255.344 173.971 255.757 173.207 255.608C170.642 255.098 169.061 253.948 168.227 252.06C168.227 252.06 166.277 250.321 166.145 249.469C165.846 247.51 166.628 245.393 167.48 243.909C167.954 243.074 168.446 242.433 168.78 242.126C170.572 240.466 176.685 243.338 176.685 243.338C178.485 244.049 177.528 251.717 175.279 254.572Z" fill="#EBB998"/>
<path d="M159.971 255.643C160.894 254.15 164.187 254.264 164.354 251.884C164.495 249.873 163.906 244.954 166.19 242.433C166.216 242.398 166.251 242.372 166.286 242.337C166.339 242.275 166.401 242.223 166.453 242.17C166.506 242.117 166.559 242.073 166.611 242.029C166.655 241.985 166.708 241.95 166.752 241.906C166.805 241.871 166.849 241.836 166.901 241.801C166.963 241.757 167.024 241.713 167.086 241.678C167.138 241.643 167.191 241.616 167.244 241.581C167.297 241.546 167.358 241.511 167.419 241.485C167.525 241.432 167.622 241.379 167.727 241.335C170.546 240.079 174.727 241.169 176.124 242.451C176.124 242.451 177.924 243.399 178.029 244.524C178.275 247.071 177.459 248.353 177.459 248.353C177.459 248.353 177.669 246.904 176.44 244.339C176.44 244.339 176.642 251.84 169.606 248.669C169.606 248.669 169.571 248.704 169.527 248.757L168.807 249.389C168.877 249.293 168.842 248.564 168.939 248.458C168.939 248.458 167.797 247.132 167.103 247.888C166.409 248.643 166.453 250.391 167.885 250.83C167.885 250.83 168.948 255.81 167.885 257.742C166.822 259.674 162.984 253.781 159.708 259.077C159.708 259.077 159.032 257.145 159.963 255.652L159.971 255.643Z" fill="#D33740"/>
<path d="M165.971 261.667C165.971 261.667 166.999 255.484 163.521 255.264C160.043 255.044 159.384 260.674 159.384 260.674C159.384 260.674 163.459 259.954 165.971 261.667Z" fill="#AF4646"/>
<path d="M273.847 151.959L278.16 162.903L273.847 165.221L268.92 156.57L273.847 151.959Z" fill="#DB7B56"/>
<path d="M287.312 176.009C282.894 174.384 267.945 174.683 267.945 174.683L266.847 173.242H247.208C247.208 173.242 244.855 184.572 250.906 186.487C253.611 187.339 271.125 190.843 271.125 190.843L287.312 176.009Z" fill="#9B8561"/>
<path d="M264.371 185.863C264.371 185.863 279.285 177.089 284.045 176.105C290.641 174.735 294.339 186.021 284.502 188.068C274.665 190.114 265.759 191.967 265.759 191.967L264.371 185.863Z" fill="#AA9775"/>
<path d="M275.068 190.691C275.068 190.691 278.415 192.316 281.023 192.43C283.851 192.562 285.705 198.025 278.195 195.83C270.686 193.634 269.368 193.247 269.368 193.247L275.068 190.691Z" fill="#1174E9"/>
<path d="M270.738 144.957C270.738 144.957 273.663 149.147 275.306 155.268C275.306 155.268 270.905 157.06 270.317 158.676C269.728 160.292 266.716 154.39 266.716 154.39L270.738 144.957Z" fill="#105CA0"/>
<path d="M260.655 139.9C260.655 139.9 253.805 141.279 249.281 144.248C245.013 147.05 245.891 170.448 247.217 173.25C247.217 173.25 264.757 180.988 266.856 173.25C266.856 173.25 267.822 158.09 270.326 153.382C272.829 148.675 273.804 142.913 260.655 139.909V139.9Z" fill="#1174E9"/>
<path d="M265.662 139.91C265.662 139.91 264.731 143.959 262.517 144.837C260.313 145.724 259.118 141.245 259.118 141.245L260.462 136.73L265.662 139.91Z" fill="#DB7B56"/>
<path d="M260.041 137.379C260.041 137.379 260.023 139.075 260.647 139.9C261.534 141.077 262.684 142.078 264.388 142.526C264.511 142.561 264.625 142.588 264.748 142.614C265.899 142.86 266.944 141.753 267.761 140.085C267.972 139.672 268.165 139.224 268.341 138.758V138.723C269.245 136.273 269.719 133.225 269.526 131.301C269.43 130.335 269.157 129.65 268.692 129.457C268.692 129.457 262.509 126.462 260.664 128.131C259.505 129.176 257.862 136.721 260.041 137.379Z" fill="#EBB998"/>
<path d="M270.694 130.458C270.369 129.439 269.71 128.35 268.639 127.454C266.065 125.329 262.412 125.794 261.12 127.235C260.989 127.261 260.857 127.305 260.734 127.358C259.671 127.832 258.872 129.861 258.644 132.022C258.626 132.118 258.617 132.206 258.609 132.303C258.459 134.015 258.661 135.763 259.39 136.835C259.355 136.606 259.039 133.945 259.785 133.98C260.576 134.015 260.611 135.544 260.611 135.544C260.611 135.544 261.05 133.497 261.937 132.865C261.937 132.865 263.659 132.733 264.845 130.739C264.845 130.739 267.769 133.339 269.57 133.717C270.738 133.954 271.283 132.32 270.694 130.458Z" fill="#1E3872"/>
<path d="M253.541 154.392C253.541 154.392 255.017 165.626 254.797 167.892C254.613 169.763 250.151 170.904 250.151 170.904C250.151 170.904 249.808 169.912 249.282 168.393C248.561 166.328 248.245 154.392 248.245 154.392C248.245 154.392 251.038 153.496 253.541 154.392Z" fill="#DB7B56"/>
<path d="M254.129 156.568C255.394 156.805 254.84 146.099 252.574 144.948C250.308 143.807 248.842 143.569 247.586 147.952C246.33 152.335 247.586 158.667 247.586 158.667C247.586 158.667 250.747 155.936 254.129 156.568Z" fill="#105CA0"/>
<path d="M250.906 168.374C251.784 167.689 253.286 167.356 255.368 168.146C257.432 168.928 263.448 173.583 263.448 173.583L261.674 175.269C261.674 175.269 251.231 171.993 250.344 171.15C249.457 170.307 250.353 168.814 250.915 168.374H250.906Z" fill="#EBB998"/>
<path d="M262.209 173.16C262.209 173.16 267.023 172.668 267.655 172.668C268.287 172.668 270.325 175.707 270.325 175.707H269.499L268.199 174.486L268.674 175.707H267.655L266.891 175.039L267.198 175.979H264.432C264.432 175.979 262.394 175.707 261.674 175.259C260.945 174.82 262.209 173.151 262.209 173.151V173.16Z" fill="#EBB998"/>
<path d="M279.073 177.055H259.372C259.065 177.055 258.81 176.8 258.81 176.493V175.623H279.635V176.493C279.635 176.8 279.38 177.055 279.073 177.055Z" fill="#5FD6FF"/>
<path d="M287.304 177.055H267.604C267.296 177.055 267.042 176.8 267.042 176.493V175.623H287.866V176.493C287.866 176.8 287.611 177.055 287.304 177.055Z" fill="#12B3D8"/>
<path d="M268.052 176.341H287.629C287.981 176.341 288.358 176.069 288.481 175.735L292.987 162.938C293.101 162.604 292.917 162.332 292.557 162.332H272.979C272.628 162.332 272.25 162.604 272.127 162.938L267.622 175.735C267.507 176.069 267.692 176.341 268.043 176.341H268.052Z" fill="#5FD6FF"/>
<path d="M276.281 191.217C276.281 191.217 258.083 174.31 252.268 176.901C246.454 179.492 247.438 186.835 252.365 188.275C258.531 190.075 274.042 194.616 274.042 194.616C274.042 194.616 276.738 193.483 276.281 191.217Z" fill="#C1B49A"/>
<path d="M174.86 59.1734C174.86 59.1734 180.745 55.221 186.489 55.7041C192.233 56.1872 195.175 58.4181 195.175 58.4181L204.301 60.605C204.301 60.605 205.899 50.2235 208.288 43.7767L210.203 42.8105C210.203 42.8105 209.456 53.2273 209.448 64.7419C209.448 67.5964 209.896 69.0719 200.454 69.0719H182.369C168.097 69.0719 174.86 59.1734 174.86 59.1734Z" fill="#105CA0"/>
<path d="M179.279 59.1718C179.279 59.1718 185.164 55.2194 190.908 55.7025C196.652 56.1856 199.594 58.4165 199.594 58.4165L212.69 60.6035C212.69 60.6035 205.479 50.3097 202.536 43.3096L204.012 41.9043C204.012 41.9043 219.022 58.8732 221.376 64.7403C222.439 67.3928 221.824 69.0703 212.382 69.0703H186.788C172.516 69.0703 179.279 59.1718 179.279 59.1718Z" fill="#1174E9"/>
<path d="M157.928 56.0815C157.928 56.0815 159.043 52.6737 157.418 51.3474C155.793 50.0212 153.071 51.1981 150.076 60.0602C147.072 68.9136 148.275 68.0265 148.275 68.0265L150.576 67.9299L157.937 56.0815H157.928Z" fill="#DB7B56"/>
<path d="M157.11 58.8987C157.11 58.8987 159.447 50.2123 155.969 50.4055C151.7 50.6339 151.366 56.6415 151.366 56.6415C151.366 56.6415 155.354 56.4131 157.11 58.8987Z" fill="#BD2124"/>
<path d="M155.969 66.4705C155.969 66.4705 152.499 66.1191 152.051 66.1191C151.603 66.1191 150.128 68.3061 150.128 68.3061H150.725L151.665 67.4278L151.322 68.3061H152.06L152.614 67.8231L152.394 68.4994H154.379C154.379 68.4994 155.846 68.2973 156.364 67.9811C156.891 67.665 155.977 66.4705 155.977 66.4705H155.969Z" fill="#EBB998"/>
<path d="M154.256 52.1989C154.256 52.1989 155.82 49.4058 157.822 49.2478C159.816 49.0897 165.314 48.185 167.738 49.2478C170.154 50.3105 174.097 58.1099 174.097 58.1099C174.097 58.1099 190.618 54.9216 189.292 69.0799H174.343C170.031 69.0799 165.736 69.0184 162.258 67.5517C159.702 66.4801 157.594 64.3546 156.47 63.5554C153.966 61.79 154.265 52.2076 154.265 52.2076L154.256 52.1989Z" fill="#D33740"/>
<path d="M157.11 48.5101C157.11 48.5101 157.549 51.1626 159.025 51.6017C159.895 51.8652 162.556 49.7309 162.556 49.7309C162.556 49.7309 162.45 46.2792 161.976 45.7698C160.826 44.5313 157.11 48.5189 157.11 48.5189V48.5101Z" fill="#DB7B56"/>
<path d="M164.77 54.0435C164.77 54.0435 164.919 50.4601 166.913 49.7838C168.898 49.1075 171.032 51.1715 170.742 60.5167C170.443 69.8619 169.635 68.6146 169.635 68.6146L166.983 65.4527L164.77 54.0435Z" fill="#DB7B56"/>
<path d="M155.968 66.4709C159.288 66.3216 168.088 63.9414 168.088 63.9414C168.088 63.9414 170.451 65.6629 169.634 68.6228C169.283 69.9051 156.354 67.9904 156.354 67.9904L155.968 66.4797V66.4709Z" fill="#EBB998"/>
<path d="M164.883 56.8716C164.883 56.8716 163.425 49.6694 167.228 49.5904C170.715 49.5201 171.365 56.1514 171.365 56.1514C171.365 56.1514 167.395 55.1676 164.883 56.8803V56.8716Z" fill="#BD2124"/>
<path d="M140.546 67.9277H157.111V68.6216C157.111 68.8675 156.909 69.0695 156.663 69.0695H140.994C140.748 69.0695 140.546 68.8675 140.546 68.6216V67.9277Z" fill="#5FD6FF"/>
<path d="M134.003 67.9277H150.568V68.6216C150.568 68.8675 150.366 69.0695 150.12 69.0695H134.451C134.205 69.0695 134.003 68.8675 134.003 68.6216V67.9277Z" fill="#12B3D8"/>
<path d="M149.759 68.4992H134.178C133.897 68.4992 133.598 68.2884 133.502 68.0162L129.918 57.8366C129.821 57.5731 129.98 57.3535 130.261 57.3535H145.842C146.123 57.3535 146.421 57.5643 146.518 57.8366L150.102 68.0162C150.198 68.2797 150.04 68.4992 149.759 68.4992Z" fill="#5FD6FF"/>
<path d="M202.862 44.0681C202.862 44.0681 204.144 42.9087 205.339 43.181C205.339 43.181 205.321 42.5399 206.226 41.7318C207.052 40.994 207.719 40.7481 208.044 40.3968C208.545 39.8698 208.422 39.4043 208.422 39.4043C208.422 39.4043 205.4 39.4482 203.415 40.1684C201.43 40.8886 200.991 41.9163 200.991 41.9163C200.991 41.9163 201.571 43.0581 202.862 44.0681Z" fill="#C15D5D"/>
<path d="M211.187 44.0656C210.555 44.5574 210.195 45.2689 210.195 45.2689C210.195 45.2689 208.201 44.8912 207.753 44.0656C207.753 44.0656 207.604 42.7657 207.753 41.861C207.902 40.9476 215.113 41.6942 215.702 42.3353C216.29 42.9677 211.811 43.565 211.178 44.0656H211.187Z" fill="#AF4646"/>
<path d="M215.702 42.3353C214.665 42.9765 211.802 42.8623 210.195 42.8096C208.587 42.7569 207.753 41.861 207.753 41.861C207.902 40.9476 215.113 41.6942 215.702 42.3353Z" fill="#C15D5D"/>
<path d="M154.5 49.4328C155.106 50.2058 155.809 50.6186 156.573 50.4692C159.138 49.9598 160.719 48.8092 161.553 46.9209C161.553 46.9209 163.503 45.1818 163.635 44.3299C163.933 42.3713 163.152 40.2545 162.3 38.7702C161.825 37.9358 161.334 37.2946 161 36.9872C159.208 35.3272 153.095 38.1993 153.095 38.1993C151.295 38.9107 152.252 46.5783 154.5 49.4328Z" fill="#EBB998"/>
<path d="M166.138 46.4023C165.251 45.5064 165.146 40.0082 164.294 38.3746C162.423 34.2026 155.528 35.5728 153.649 37.2943C153.649 37.2943 152.226 37.8827 151.839 39.1826C151.049 41.8351 152.305 43.1965 152.305 43.1965C152.305 43.1965 152.182 42.3533 152.665 40.8251C153.086 41.6419 153.877 42.7046 155.37 43.4775C155.37 43.4775 154.869 42.4148 154.263 41.0095C154.263 41.0095 156.002 42.6871 158.207 43.2667L158.04 42.9681C158.699 43.2492 159.41 43.4512 160.157 43.5127C160.157 43.5127 160.526 43.8816 160.719 44.4261C160.719 44.4261 161.176 43.6795 160.824 43.3019C160.824 43.3019 161.966 41.9756 162.66 42.731C163.354 43.4951 163.31 45.2341 161.878 45.6733C162.476 47.5353 161.386 51.3911 161.386 51.3911C164.917 50.6357 167.016 47.2894 166.129 46.3935L166.138 46.4023Z" fill="#F5911E"/>
<path d="M62.6325 238.059C62.6325 238.059 51.8205 270.688 52.9272 273.885C54.0338 277.082 68.3854 289.036 68.3854 289.036L70.3264 283.037L62.5885 271.961L72.9438 251.945C72.9438 251.945 67.2699 238.99 62.6412 238.059H62.6325Z" fill="#9B8561"/>
<path d="M82.2261 235.555C82.2261 235.555 83.3152 242.642 78.5285 262.106C76.482 270.406 70.3251 305.336 70.3251 305.336H65.995C65.995 305.336 65.8896 272.54 66.1443 269.958C66.399 267.376 67.9976 246.068 67.9976 246.068C67.9976 246.068 62.0514 240.192 63.8959 235.677C65.7315 231.163 82.2349 235.555 82.2349 235.555H82.2261Z" fill="#AA9775"/>
<path d="M55.5879 214.258L51.2842 225.21L52.5577 230.357C52.5577 230.357 54.4724 229.286 55.9041 226.8C57.3006 224.376 60.524 218.878 60.524 218.878L55.5967 214.258H55.5879Z" fill="#DB7B56"/>
<path d="M58.6981 207.26C58.6981 207.26 55.7733 211.449 54.1309 217.571C54.1309 217.571 58.5312 219.363 59.1196 220.979C59.7081 222.595 62.7207 216.693 62.7207 216.693L58.6981 207.26Z" fill="#BBDEFB"/>
<path d="M68.7892 202.209C68.7892 202.209 75.64 203.588 80.1633 206.557C84.4318 209.358 83.9927 236.735 82.6664 239.537C82.6664 239.537 76.7291 241.443 70.5897 241.311C63.8882 241.162 62.1492 239.537 62.1492 239.537C62.1492 239.537 61.6134 220.399 59.119 215.691C56.6159 210.983 55.6409 205.222 68.7892 202.218V202.209Z" fill="white"/>
<path d="M63.7832 202.215C63.7832 202.215 64.7142 206.264 66.9275 207.142C69.1321 208.029 70.3266 203.55 70.3266 203.55L68.9828 199.035L63.7832 202.215Z" fill="#DB7B56"/>
<path d="M69.3927 199.688C69.3927 199.688 69.4102 201.383 68.7866 202.209C67.8996 203.386 66.749 204.387 65.0451 204.835C64.9221 204.87 64.8079 204.896 64.6849 204.923C63.5344 205.169 62.4892 204.062 61.6724 202.393C61.4616 201.98 61.2683 201.532 61.0927 201.067V201.032C60.188 198.581 59.7137 195.534 59.907 193.61C60.0036 192.644 60.2758 191.959 60.7414 191.766C60.7414 191.766 66.9246 188.771 68.7691 190.439C69.9284 191.485 71.5709 199.029 69.3927 199.688Z" fill="#EBB998"/>
<path d="M70.7987 194.33C70.8075 194.426 70.8163 194.514 70.8339 194.611C70.9832 196.323 70.7812 198.071 70.0522 199.134C70.0873 198.906 70.4035 196.253 69.6569 196.28C68.8752 196.315 68.8313 197.843 68.8313 197.843C68.8313 197.843 68.3922 195.797 67.5051 195.164C66.618 194.523 65.7485 192.608 65.7485 192.608C65.7485 192.608 62.2089 194.128 59.8989 193.741C58.9416 193.372 58.3707 192.345 58.318 191.405C58.2477 190.237 58.9943 189.2 60.8036 189.763C64.352 190.852 66.8727 188.867 68.6996 189.666C69.7711 190.131 70.5616 192.169 70.7987 194.33Z" fill="#5A4A42"/>
<path d="M70.3085 306.481V309.555H58.9607C58.9607 309.555 58.3811 308.835 60.4451 307.956C62.5091 307.069 66.075 306.208 66.6284 304.575C66.6284 304.575 69.2808 303.837 70.3085 306.489V306.481Z" fill="#4F5FAC"/>
<path d="M91.2027 226.378C91.1763 226.299 91.15 226.229 91.1324 226.168C90.6405 224.508 90.017 222.909 89.3055 221.337C88.2955 219.088 87.2064 216.858 86.0382 214.679C86.0382 214.679 78.7483 213.722 79.6354 215.909C80.5224 218.096 86.9253 228.917 86.9253 228.917C87.4786 230.946 77.6504 242.539 77.6504 242.539C77.6504 242.539 78.4936 245.007 79.5651 245.429C79.5651 245.429 84.3519 241.758 87.6807 238.06C91.0094 234.371 92.4411 231.165 92.4411 231.165C92.766 230.427 91.5803 227.52 91.2027 226.378Z" fill="#EBB998"/>
<path d="M81.2956 219.913C80.3032 220.73 75.5427 210.454 76.9832 208.355C78.4236 206.255 79.5917 205.351 82.8063 208.592C86.0122 211.833 87.6809 217.182 87.6809 217.182C87.6809 217.182 83.9657 217.735 81.2956 219.913Z" fill="#BBDEFB"/>
<path d="M50.1869 215.848L50.4416 219.572C50.4416 219.572 48.9748 225.333 49.3437 227.529C49.7214 229.725 51.276 230.779 51.276 230.779C51.276 230.779 54.6838 230.278 54.7365 227.081C54.798 223.884 52.8394 218.491 52.8394 218.491L50.1781 215.856L50.1869 215.848Z" fill="#EBB998"/>
<path d="M49.3079 210.666H54.0859C54.3142 210.675 54.5426 210.886 54.6129 211.14L56.6857 219.493C56.7472 219.748 56.6154 219.958 56.3958 219.958H51.6179C51.3895 219.95 51.1611 219.739 51.0909 219.484L49.0181 211.132C48.9566 210.877 49.0883 210.666 49.3079 210.666Z" fill="#5FD6FF"/>
<path d="M49.3961 214.301C49.3961 214.301 51.021 213.502 51.6797 213.256C52.3384 213.001 52.4877 214.108 50.0636 214.916C50.0636 214.916 52.4877 214.178 52.7161 214.916C52.9357 215.654 50.5818 216.023 50.5818 216.023C50.5818 216.023 52.8215 216.857 52.7337 217.068C52.6458 217.279 53.0499 217.718 52.7337 218.052C52.4263 218.385 50.4413 218.499 50.4413 218.499C50.4413 218.499 49.1063 216.058 49.4049 214.31L49.3961 214.301Z" fill="#EBB998"/>
<path d="M173.94 7.86328H188.748C194.765 7.86328 199.639 12.7379 199.639 18.7543V21.1433C199.639 27.1597 194.765 32.0343 188.748 32.0343H180L173.694 39.2627L175.503 32.0343H173.94C167.923 32.0343 163.058 27.1597 163.058 21.1433V18.7543C163.058 12.7379 167.932 7.86328 173.94 7.86328Z" fill="white"/>
<path d="M189.82 21.3631C190.698 21.3631 191.41 20.6513 191.41 19.7733C191.41 18.8953 190.698 18.1836 189.82 18.1836C188.942 18.1836 188.23 18.8953 188.23 19.7733C188.23 20.6513 188.942 21.3631 189.82 21.3631Z" fill="#1174E9"/>
<path d="M181.344 21.3631C182.222 21.3631 182.933 20.6513 182.933 19.7733C182.933 18.8953 182.222 18.1836 181.344 18.1836C180.466 18.1836 179.754 18.8953 179.754 19.7733C179.754 20.6513 180.466 21.3631 181.344 21.3631Z" fill="#1174E9"/>
<path d="M172.868 21.3631C173.746 21.3631 174.458 20.6513 174.458 19.7733C174.458 18.8953 173.746 18.1836 172.868 18.1836C171.99 18.1836 171.278 18.8953 171.278 19.7733C171.278 20.6513 171.99 21.3631 172.868 21.3631Z" fill="#1174E9"/>
<path d="M35.3067 180.107H20.4984C14.482 180.107 9.60742 184.982 9.60742 190.998V193.387C9.60742 199.404 14.482 204.278 20.4984 204.278H29.2464L35.5526 211.507L33.7433 204.278H35.3067C41.3231 204.278 46.1889 199.404 46.1889 193.387V190.998C46.1889 184.982 41.3143 180.107 35.3067 180.107Z" fill="white"/>
<path d="M23.1411 188.461C25.0997 186.502 27.9103 189.339 27.9103 189.339C27.9103 189.339 30.7208 186.502 32.6795 188.461C35.7535 191.526 27.9103 197.393 27.9103 197.393C27.9103 197.393 20.067 191.526 23.1411 188.461Z" fill="#1174E9"/>
<path d="M240.681 249.012H261.55C263.902 249.012 265.81 247.105 265.81 244.752V234.16C265.81 231.807 263.902 229.9 261.55 229.9H240.681C238.329 229.9 236.421 231.807 236.421 234.16V244.752C236.421 247.105 238.329 249.012 240.681 249.012Z" fill="white"/>
<path d="M237.536 231.285L248.436 239.506L249.27 240.147L249.832 240.569C250.588 241.14 251.633 241.14 252.388 240.569L252.95 240.147L253.785 239.506L264.685 231.285L254.496 240.13L264.685 248.983L253.776 240.753L252.502 241.86C251.703 242.554 250.526 242.554 249.727 241.86L248.453 240.753L237.545 248.983L247.733 240.13L237.545 231.285H237.536Z" fill="#1174E9"/>
<path d="M236.458 259.683L250.485 255.737C252.063 255.293 252.983 253.654 252.539 252.076L250.534 244.948C250.09 243.37 248.451 242.45 246.873 242.894L232.846 246.84C231.267 247.284 230.348 248.923 230.792 250.501L232.797 257.629C233.241 259.207 234.88 260.127 236.458 259.683Z" fill="#1174E9"/>
<path d="M230.992 248.393L239.863 251.854L240.548 252.126L241.005 252.301C241.62 252.539 242.322 252.345 242.726 251.818L243.025 251.432L243.464 250.843L249.235 243.264L244.061 251.133L252.572 255.156L243.692 251.687L243.043 252.67C242.639 253.285 241.848 253.505 241.172 253.197L240.109 252.697L234.339 260.285L239.503 252.416L230.992 248.402V248.393Z" fill="white"/>
<path d="M300.916 196.242L300.24 196.892L301.039 197.946L301.847 197.471C302.102 197.708 302.374 197.919 302.673 198.104L302.427 199.008L303.648 199.5L304.095 198.683C304.394 198.754 304.71 198.789 305.026 198.797L305.264 199.702L306.572 199.527V198.587C306.862 198.499 307.152 198.376 307.424 198.227L308.074 198.903L309.128 198.104L308.654 197.296C308.891 197.041 309.102 196.769 309.286 196.47L310.191 196.716L310.683 195.495L309.866 195.047C309.936 194.749 309.971 194.432 309.98 194.116L310.885 193.879L310.709 192.57L309.769 192.588C309.681 192.28 309.559 191.999 309.409 191.718L310.086 191.068L309.286 190.014L308.478 190.489C308.223 190.252 307.951 190.041 307.653 189.856L307.899 188.952L306.678 188.46L306.23 189.277C305.931 189.206 305.615 189.171 305.299 189.162L305.062 188.258L303.753 188.433V189.373C303.463 189.461 303.173 189.584 302.901 189.733L302.251 189.057L301.197 189.856L301.671 190.664C301.434 190.919 301.223 191.191 301.039 191.49L300.134 191.244L299.642 192.465L300.459 192.913C300.389 193.211 300.354 193.528 300.345 193.844L299.44 194.081L299.616 195.39L300.556 195.372C300.644 195.68 300.767 195.961 300.916 196.242ZM303.164 194.239C303.015 193.141 303.788 192.122 304.886 191.973C305.984 191.824 307.003 192.597 307.152 193.703C307.301 194.801 306.528 195.82 305.43 195.969C304.333 196.119 303.314 195.346 303.164 194.239Z" fill="white"/>
<path d="M306.757 185.612L305.818 186.516L306.933 187.983L308.057 187.324C308.409 187.658 308.795 187.948 309.208 188.203L308.865 189.459L310.569 190.144L311.202 189.002C311.623 189.098 312.054 189.151 312.493 189.16L312.818 190.425L314.636 190.179L314.618 188.87C315.04 188.738 315.444 188.571 315.822 188.369L316.726 189.309L318.193 188.194L317.534 187.07C317.868 186.718 318.158 186.332 318.413 185.919L319.669 186.262L320.354 184.558L319.212 183.925C319.308 183.504 319.361 183.073 319.37 182.634L320.635 182.309L320.389 180.491L319.08 180.509C318.948 180.087 318.781 179.683 318.579 179.305L319.519 178.401L318.404 176.934L317.28 177.593C316.928 177.259 316.542 176.969 316.129 176.714L316.471 175.458L314.768 174.773L314.135 175.915C313.714 175.818 313.283 175.766 312.844 175.757L312.519 174.492L310.701 174.738L310.719 176.047C310.297 176.179 309.893 176.345 309.515 176.547L308.611 175.608L307.144 176.723L307.803 177.847C307.469 178.199 307.179 178.585 306.924 178.998L305.668 178.655L304.983 180.359L306.125 180.992C306.028 181.413 305.976 181.844 305.967 182.283L304.702 182.608L304.948 184.426L306.257 184.408C306.388 184.83 306.555 185.234 306.757 185.612ZM309.893 182.827C309.682 181.29 310.762 179.885 312.299 179.674C313.837 179.463 315.242 180.544 315.453 182.081C315.663 183.618 314.583 185.023 313.046 185.234C311.509 185.445 310.104 184.364 309.893 182.827Z" fill="#1174E9"/>
<path d="M313.415 203.96L312.106 205.225L313.661 207.263L315.224 206.34C315.716 206.806 316.252 207.21 316.823 207.561L316.349 209.318L318.729 210.275L319.607 208.677C320.196 208.808 320.793 208.887 321.416 208.905L321.873 210.67L324.42 210.328L324.394 208.501C324.982 208.325 325.544 208.088 326.08 207.807L327.345 209.116L329.383 207.561L328.46 205.998C328.926 205.506 329.33 204.97 329.681 204.399L331.438 204.874L332.395 202.493L330.797 201.615C330.928 201.027 331.008 200.429 331.025 199.806L332.79 199.349L332.448 196.802L330.621 196.828C330.445 196.24 330.208 195.678 329.927 195.142L331.236 193.877L329.681 191.839L328.118 192.762C327.626 192.296 327.09 191.892 326.519 191.541L326.994 189.784L324.613 188.827L323.735 190.425C323.147 190.294 322.549 190.215 321.926 190.197L321.469 188.432L318.922 188.774L318.948 190.601C318.36 190.777 317.798 191.014 317.262 191.295L315.997 189.986L313.96 191.541L314.882 193.104C314.416 193.596 314.012 194.132 313.661 194.703L311.904 194.228L310.947 196.609L312.546 197.487C312.414 198.075 312.335 198.673 312.317 199.296L310.552 199.753L310.894 202.3L312.721 202.274C312.897 202.862 313.134 203.424 313.415 203.96ZM317.798 200.078C317.508 197.935 319.01 195.968 321.153 195.678C323.296 195.388 325.263 196.89 325.553 199.033C325.843 201.176 324.341 203.143 322.198 203.433C320.055 203.723 318.088 202.221 317.798 200.078Z" fill="white"/>
</svg>
